REM DIRINDEX 1\2,1\3,1\4,1\5
REM DIRNAME "folder01","folder02","folder03","folder04","folder05"
TITLE ""
FILE "1Q_t_0159-0168.mp3" MP3
  TRACK 01 AUDIO
    TITLE "0:"
    INDEX 01 00:00:00
  TRACK 02 AUDIO
    TITLE "3:cjc172_1390"
    INDEX 01 00:00:12
  TRACK 03 AUDIO
    TITLE "0:"
    INDEX 01 00:01:41
  TRACK 04 AUDIO
    TITLE "4:cjc172_1391"
    INDEX 01 00:01:57
  TRACK 05 AUDIO
    TITLE "0:"
    INDEX 01 00:05:19
  TRACK 06 AUDIO
    TITLE "5:cjc172_1392"
    INDEX 01 00:05:33
  TRACK 07 AUDIO
    TITLE "0:"
    INDEX 01 00:13:38
  TRACK 08 AUDIO
    TITLE "3:cjc172_1393"
    INDEX 01 00:14:16
  TRACK 09 AUDIO
    TITLE "0:"
    INDEX 01 00:15:29
  TRACK 10 AUDIO
    TITLE "4:cjc172_1394"
    INDEX 01 00:15:45
  TRACK 11 AUDIO
    TITLE "0:"
    INDEX 01 00:16:60
  TRACK 12 AUDIO
    TITLE "5:cjc172_1395"
    INDEX 01 00:17:01
  TRACK 13 AUDIO
    TITLE "0:"
    INDEX 01 00:24:13
  TRACK 14 AUDIO
    TITLE "3:cjc172_1396"
    INDEX 01 00:24:68
  TRACK 15 AUDIO
    TITLE "0:"
    INDEX 01 00:26:08
  TRACK 16 AUDIO
    TITLE "4:cjc172_1397"
    INDEX 01 00:26:21
  TRACK 17 AUDIO
    TITLE "0:"
    INDEX 01 00:28:38
  TRACK 18 AUDIO
    TITLE "5:cjc172_1398"
    INDEX 01 00:28:54
  TRACK 19 AUDIO
    TITLE "0:"
    INDEX 01 00:33:72
  TRACK 20 AUDIO
    TITLE "3:cjc172_1399"
    INDEX 01 00:34:54
  TRACK 21 AUDIO
    TITLE "0:"
    INDEX 01 00:35:64
  TRACK 22 AUDIO
    TITLE "4:cjc172_1400"
    INDEX 01 00:36:02
  TRACK 23 AUDIO
    TITLE "0:"
    INDEX 01 00:37:27
  TRACK 24 AUDIO
    TITLE "5:cjc172_1401"
    INDEX 01 00:37:41
  TRACK 25 AUDIO
    TITLE "0:"
    INDEX 01 00:44:60
  TRACK 26 AUDIO
    TITLE "3:cjc172_1402"
    INDEX 01 00:45:36
  TRACK 27 AUDIO
    TITLE "0:"
    INDEX 01 00:46:52
  TRACK 28 AUDIO
    TITLE "4:cjc172_1403"
    INDEX 01 00:46:73
  TRACK 29 AUDIO
    TITLE "0:"
    INDEX 01 00:49:15
  TRACK 30 AUDIO
    TITLE "5:cjc172_1404"
    INDEX 01 00:49:30
  TRACK 31 AUDIO
    TITLE "0:"
    INDEX 01 00:55:52
  TRACK 32 AUDIO
    TITLE "3:cjc172_1405"
    INDEX 01 00:56:30
  TRACK 33 AUDIO
    TITLE "0:"
    INDEX 01 00:57:32
  TRACK 34 AUDIO
    TITLE "4:cjc172_1406"
    INDEX 01 00:57:46
  TRACK 35 AUDIO
    TITLE "0:"
    INDEX 01 00:58:63
  TRACK 36 AUDIO
    TITLE "5:cjc172_1407"
    INDEX 01 00:59:01
  TRACK 37 AUDIO
    TITLE "0:"
    INDEX 01 01:05:57
  TRACK 38 AUDIO
    TITLE "3:cjc172_1408"
    INDEX 01 01:06:37
  TRACK 39 AUDIO
    TITLE "0:"
    INDEX 01 01:07:44
  TRACK 40 AUDIO
    TITLE "4:cjc172_1409"
    INDEX 01 01:07:60
  TRACK 41 AUDIO
    TITLE "0:"
    INDEX 01 01:10:13
  TRACK 42 AUDIO
    TITLE "5:cjc172_1410"
    INDEX 01 01:10:31
  TRACK 43 AUDIO
    TITLE "0:"
    INDEX 01 01:15:49
  TRACK 44 AUDIO
    TITLE "3:cjc172_1411"
    INDEX 01 01:16:27
  TRACK 45 AUDIO
    TITLE "0:"
    INDEX 01 01:17:34
  TRACK 46 AUDIO
    TITLE "4:cjc172_1412"
    INDEX 01 01:17:50
  TRACK 47 AUDIO
    TITLE "0:"
    INDEX 01 01:20:64
  TRACK 48 AUDIO
    TITLE "5:cjc172_1413"
    INDEX 01 01:21:03
  TRACK 49 AUDIO
    TITLE "0:"
    INDEX 01 01:27:13
  TRACK 50 AUDIO
    TITLE "3:cjc172_1414"
    INDEX 01 01:27:66
  TRACK 51 AUDIO
    TITLE "0:"
    INDEX 01 01:29:34
  TRACK 52 AUDIO
    TITLE "4:cjc172_1415"
    INDEX 01 01:29:49
  TRACK 53 AUDIO
    TITLE "0:"
    INDEX 01 01:31:56
  TRACK 54 AUDIO
    TITLE "5:cjc172_1416"
    INDEX 01 01:31:70
  TRACK 55 AUDIO
    TITLE "0:"
    INDEX 01 01:38:74
  TRACK 56 AUDIO
    TITLE "3:cjc172_1417"
    INDEX 01 01:39:54
  TRACK 57 AUDIO
    TITLE "0:"
    INDEX 01 01:40:59
  TRACK 58 AUDIO
    TITLE "4:cjc172_1418"
    INDEX 01 01:41:04
  TRACK 59 AUDIO
    TITLE "0:"
    INDEX 01 01:42:36
  TRACK 60 AUDIO
    TITLE "5:cjc172_1419"
    INDEX 01 01:42:52
  TRACK 61 AUDIO
    TITLE "0:"
    INDEX 01 01:48:12
